<?xml version="1.0" standalone="no"?>
<!DOCTYPE svg PUBLIC "-//W3C//DTD SVG 20010904//EN"
 "http://www.w3.org/TR/2001/REC-SVG-20010904/DTD/svg10.dtd">
<svg version="1.0" xmlns="http://www.w3.org/2000/svg"
 width="112.000000pt" height="112.000000pt" viewBox="0 0 112.000000 112.000000"
 preserveAspectRatio="xMidYMid meet">
<metadata>
Created by potrace 1.10, written by Peter Selinger 2001-2011
</metadata>
<g transform="translate(0.000000,112.000000) scale(0.100000,-0.100000)"
fill="#000000" stroke="none">
<path d="M867 933 l-167 -168 0 133 0 132 -45 0 -45 0 0 -210 0 -210 210 0
210 0 0 45 0 45 -132 0 -133 0 170 170 169 169 -29 31 c-16 16 -31 30 -34 30
-4 0 -81 -75 -174 -167z"/>
<path d="M90 465 l0 -45 132 0 133 0 -170 -170 -170 -170 33 -32 32 -33 170
170 170 170 0 -133 0 -132 45 0 45 0 0 210 0 210 -210 0 -210 0 0 -45z"/>
</g>
</svg>
