<?xml version="1.0" standalone="no"?>
<!DOCTYPE svg PUBLIC "-//W3C//DTD SVG 20010904//EN"
 "http://www.w3.org/TR/2001/REC-SVG-20010904/DTD/svg10.dtd">
<svg version="1.0" xmlns="http://www.w3.org/2000/svg"
 width="112.000000pt" height="113.000000pt" viewBox="0 0 112.000000 113.000000"
 preserveAspectRatio="xMidYMid meet">
<metadata>
Created by potrace 1.10, written by Peter Selinger 2001-2011
</metadata>
<g transform="translate(0.000000,113.000000) scale(0.100000,-0.100000)"
fill="#000000" stroke="none">
<path d="M278 649 l-3 -481 -80 68 c-44 37 -90 76 -101 86 -21 19 -22 19 -52
-20 l-31 -38 136 -115 c75 -63 147 -122 159 -132 22 -17 24 -16 178 114 93 78
153 136 149 143 -12 21 -46 56 -56 56 -5 0 -51 -36 -103 -80 l-94 -81 0 481 0
480 -50 0 -50 0 -2 -481z"/>
<path d="M510 1085 l0 -45 305 0 305 0 0 45 0 45 -305 0 -305 0 0 -45z"/>
<path d="M510 895 l0 -45 260 0 260 0 0 45 0 45 -260 0 -260 0 0 -45z"/>
<path d="M510 705 l0 -45 210 0 210 0 0 45 0 45 -210 0 -210 0 0 -45z"/>
<path d="M517 564 c-4 -4 -7 -27 -7 -51 l0 -43 171 0 170 0 -3 48 -3 47 -161
3 c-88 1 -163 -1 -167 -4z"/>
</g>
</svg>
