<?xml version="1.0" standalone="no"?>
<!DOCTYPE svg PUBLIC "-//W3C//DTD SVG 20010904//EN"
 "http://www.w3.org/TR/2001/REC-SVG-20010904/DTD/svg10.dtd">
<svg version="1.0" xmlns="http://www.w3.org/2000/svg"
 width="112.000000pt" height="113.000000pt" viewBox="0 0 112.000000 113.000000"
 preserveAspectRatio="xMidYMid meet">
<metadata>
Created by potrace 1.10, written by Peter Selinger 2001-2011
</metadata>
<g transform="translate(0.000000,113.000000) scale(0.050000,-0.050000)"
fill="#000000" stroke="none">
<path d="M1400 2170 l0 -90 250 0 c138 0 250 -7 250 -15 0 -8 -149 -163 -330
-345 l-331 -331 72 -70 72 -69 328 335 c181 184 333 335 339 335 5 0 10 -112
10 -250 l0 -250 90 0 90 0 0 420 0 420 -420 0 -420 0 0 -90z"/>
<path d="M523 670 c-177 -181 -327 -330 -333 -330 -5 0 -10 113 -10 250 l0
250 -90 0 -90 0 0 -420 0 -420 420 0 420 0 0 90 0 90 -250 0 c-137 0 -250 7
-250 15 0 9 148 164 330 345 l329 329 -63 65 c-84 87 -48 110 -413 -264z"/>
</g>
</svg>
