<?xml version="1.0" standalone="no"?>
<!DOCTYPE svg PUBLIC "-//W3C//DTD SVG 20010904//EN"
 "http://www.w3.org/TR/2001/REC-SVG-20010904/DTD/svg10.dtd">
<svg version="1.0" xmlns="http://www.w3.org/2000/svg"
 width="61.000000pt" height="61.000000pt" viewBox="0 0 61.000000 61.000000"
 preserveAspectRatio="xMidYMid meet">
<metadata>
Created by potrace 1.10, written by Peter Selinger 2001-2011
</metadata>
<g transform="translate(0.000000,61.000000) scale(0.050000,-0.050000)"
fill="#000000" stroke="none">
<path d="M487 1199 c-462 -91 -636 -673 -303 -1013 228 -233 624 -233 852 0
414 423 32 1128 -549 1013z m122 -123 c46 -66 38 -101 -39 -176 -109 -106 -81
-261 52 -290 81 -18 239 -109 253 -145 6 -16 -13 -78 -42 -138 -29 -59 -53
-125 -53 -146 0 -92 -63 -59 -76 39 -9 68 -55 134 -103 150 -35 11 -39 24 -29
89 11 69 6 81 -48 121 -34 25 -66 67 -73 93 -17 67 -123 127 -226 127 -47 0
-85 10 -85 21 0 46 213 233 301 264 120 43 132 42 168 -9z m229 -15 c316 -161
368 -578 104 -830 -75 -71 -80 -39 -11 71 112 178 18 316 -276 406 -61 19 -65
72 -10 119 74 62 101 127 86 205 -15 80 0 84 107 29z m-531 -385 c20 -11 45
-46 57 -78 11 -32 37 -68 58 -79 27 -15 38 -42 38 -98 0 -74 49 -141 122 -165
11 -4 28 -40 37 -81 49 -217 -390 21 -479 260 -92 244 -25 340 167 241z"/>
</g>
</svg>
