<?xml version="1.0" standalone="no"?>
<!DOCTYPE svg PUBLIC "-//W3C//DTD SVG 20010904//EN"
 "http://www.w3.org/TR/2001/REC-SVG-20010904/DTD/svg10.dtd">
<svg version="1.0" xmlns="http://www.w3.org/2000/svg"
 width="58.000000pt" height="58.000000pt" viewBox="0 0 58.000000 58.000000"
 preserveAspectRatio="xMidYMid meet">
<metadata>
Created by potrace 1.10, written by Peter Selinger 2001-2011
</metadata>
<g transform="translate(0.000000,58.000000) scale(0.050000,-0.050000)"
fill="#000000" stroke="none">
<path d="M0 580 l0 -580 580 0 580 0 0 580 0 580 -580 0 -580 0 0 -580z m360
350 l0 -130 -130 0 -130 0 0 130 0 130 130 0 130 0 0 -130z m340 0 l0 -130
-120 0 -120 0 0 130 0 130 120 0 120 0 0 -130z m360 0 l0 -130 -130 0 -130 0
0 130 0 130 130 0 130 0 0 -130z m-700 -350 l0 -117 -130 -6 -130 -7 0 130 0
130 130 -7 130 -6 0 -117z m340 0 l0 -130 -120 0 -120 0 0 130 0 130 120 0
120 0 0 -130z m360 5 l0 -135 -130 7 -130 6 0 118 0 117 125 7 c69 4 127 9
130 11 3 2 5 -57 5 -131z m-700 -355 l0 -130 -130 0 -130 0 0 130 0 130 130 0
130 0 0 -130z m340 0 l0 -130 -120 0 -120 0 0 130 0 130 120 0 120 0 0 -130z
m360 0 l0 -130 -130 0 -130 0 0 130 0 130 130 0 130 0 0 -130z"/>
</g>
</svg>
