<?xml version="1.0" standalone="no"?>
<!DOCTYPE svg PUBLIC "-//W3C//DTD SVG 20010904//EN"
 "http://www.w3.org/TR/2001/REC-SVG-20010904/DTD/svg10.dtd">
<svg version="1.0" xmlns="http://www.w3.org/2000/svg"
 width="61.000000pt" height="46.000000pt" viewBox="0 0 61.000000 46.000000"
 preserveAspectRatio="xMidYMid meet">
<metadata>
Created by potrace 1.10, written by Peter Selinger 2001-2011
</metadata>
<g transform="translate(0.000000,46.000000) scale(0.050000,-0.050000)"
fill="#000000" stroke="none">
<path d="M0 870 l0 -50 610 0 610 0 0 50 0 50 -610 0 -610 0 0 -50z"/>
<path d="M0 460 l0 -60 610 0 610 0 0 60 0 60 -610 0 -610 0 0 -60z"/>
<path d="M0 50 l0 -50 610 0 610 0 0 50 0 50 -610 0 -610 0 0 -50z"/>
</g>
</svg>
