<?xml version="1.0" standalone="no"?>
<!DOCTYPE svg PUBLIC "-//W3C//DTD SVG 20010904//EN"
 "http://www.w3.org/TR/2001/REC-SVG-20010904/DTD/svg10.dtd">
<svg version="1.0" xmlns="http://www.w3.org/2000/svg"
 width="300.000000pt" height="300.000000pt" viewBox="0 0 300.000000 300.000000"
 preserveAspectRatio="xMidYMid meet">
<metadata>
Created by potrace 1.10, written by Peter Selinger 2001-2011
</metadata>
<g transform="translate(0.000000,300.000000) scale(0.050000,-0.050000)"
fill="#000000" stroke="none">
<path d="M2750 5732 c-1393 -619 -2526 -1140 -2555 -1174 -45 -55 -55 -3124
-10 -3184 21 -27 1027 -463 2510 -1087 l305 -128 305 128 c1483 624 2489 1060
2510 1087 45 60 35 3129 -10 3183 -28 34 -2637 1227 -2778 1271 -22 6 -136
-33 -277 -96z m1500 -641 c649 -294 1232 -558 1295 -586 l115 -50 -5 -1491 -5
-1490 -680 -289 c-374 -159 -970 -412 -1325 -563 l-645 -275 -645 275 c-355
151 -951 404 -1325 563 l-680 289 -5 1490 -5 1490 135 60 c865 387 2378 1072
2421 1096 90 50 131 34 1354 -519z"/>
<path d="M3770 3320 l0 -1380 455 0 455 0 0 1380 0 1380 -455 0 -455 0 0
-1380z m610 0 l0 -1080 -160 0 -160 0 0 1080 0 1080 160 0 160 0 0 -1080z"/>
<path d="M1310 3010 l0 -1070 455 0 455 0 0 1070 0 1070 -455 0 -455 0 0
-1070z m610 0 l0 -770 -160 0 -160 0 0 770 0 770 160 0 160 0 0 -770z"/>
<path d="M2540 2700 l0 -760 460 0 460 0 0 760 0 760 -460 0 -460 0 0 -760z
m620 0 l0 -460 -160 0 -160 0 0 460 0 460 160 0 160 0 0 -460z"/>
<path d="M1153 1465 l2 -155 1843 -5 1842 -5 0 160 0 160 -1845 0 -1845 0 3
-155z"/>
</g>
</svg>
