<?xml version="1.0" standalone="no"?>
<!DOCTYPE svg PUBLIC "-//W3C//DTD SVG 20010904//EN"
 "http://www.w3.org/TR/2001/REC-SVG-20010904/DTD/svg10.dtd">
<svg version="1.0" xmlns="http://www.w3.org/2000/svg"
 width="300.000000pt" height="300.000000pt" viewBox="0 0 300.000000 300.000000"
 preserveAspectRatio="xMidYMid meet">
<metadata>
Created by potrace 1.10, written by Peter Selinger 2001-2011
</metadata>
<g transform="translate(0.000000,300.000000) scale(0.100000,-0.100000)"
fill="#000000" stroke="none">
<path d="M301 2783 c-18 -9 -44 -33 -57 -53 l-24 -36 2 -1187 3 -1186 30 -32
c59 -62 -14 -59 1252 -59 l1158 0 40 23 c26 14 48 37 63 67 l22 44 0 801 c0
869 1 854 -56 968 -19 38 -92 119 -283 310 -141 142 -277 272 -304 288 -26 17
-74 40 -108 50 -58 18 -104 19 -882 19 -744 0 -825 -2 -856 -17z m341 -565 c3
-369 3 -373 26 -410 13 -22 40 -45 66 -58 43 -20 53 -20 569 -18 513 3 526 3
553 24 15 11 37 33 48 48 20 26 21 42 24 407 l3 379 27 -6 c15 -4 41 -13 57
-21 45 -22 509 -492 534 -541 21 -41 21 -48 21 -807 l0 -765 -105 0 -104 0 -3
374 c-3 362 -4 376 -24 403 -11 15 -36 38 -54 51 l-34 22 -750 -2 -751 -3 -33
-23 c-67 -48 -67 -47 -70 -454 l-3 -368 -105 0 -104 0 0 1070 0 1070 104 0
105 0 3 -372z m1054 358 c18 -14 19 -31 22 -296 2 -243 1 -285 -13 -306 -15
-24 -16 -24 -203 -24 -133 0 -192 4 -200 12 -9 9 -12 90 -12 304 0 291 0 293
22 308 31 22 354 23 384 2z m444 -1806 l0 -320 -640 0 -640 0 0 320 0 320 640
0 640 0 0 -320z"/>
</g>
</svg>
