<?xml version="1.0" standalone="no"?>
<!DOCTYPE svg PUBLIC "-//W3C//DTD SVG 20010904//EN"
 "http://www.w3.org/TR/2001/REC-SVG-20010904/DTD/svg10.dtd">
<svg version="1.0" xmlns="http://www.w3.org/2000/svg"
 width="58.000000pt" height="123.000000pt" viewBox="0 0 58.000000 123.000000"
 preserveAspectRatio="xMidYMid meet">
<metadata>
Created by potrace 1.10, written by Peter Selinger 2001-2011
</metadata>
<g transform="translate(0.000000,123.000000) scale(0.050000,-0.050000)"
fill="#000000" stroke="none">
<path d="M454 2371 c-307 -109 -435 -430 -283 -709 l51 -94 -56 -99 c-79 -140
-79 -317 0 -460 l56 -101 -56 -99 c-191 -339 95 -763 487 -723 353 36 549 411
383 730 l-51 97 53 89 c74 126 74 327 0 470 l-53 101 49 82 c223 378 -169 863
-580 716z m373 -145 c103 -72 173 -204 173 -324 -1 -93 -67 -272 -95 -258
-198 102 -376 115 -522 39 -101 -53 -121 -40 -164 112 -99 349 312 640 608
431z m-103 -607 c103 -28 111 -55 28 -89 -92 -39 -215 -38 -308 2 l-74 33 80
37 c91 42 167 47 274 17z m0 -660 c103 -28 111 -55 28 -89 -92 -39 -215 -38
-308 2 l-74 33 80 37 c91 42 167 47 274 17z m-114 -209 c110 0 157 10 218 46
62 37 82 41 96 20 188 -269 3 -634 -323 -636 -301 -1 -498 339 -342 593 l38
63 87 -43 c63 -32 123 -43 226 -43z"/>
</g>
</svg>
