<?xml version="1.0" standalone="no"?>
<!DOCTYPE svg PUBLIC "-//W3C//DTD SVG 20010904//EN"
 "http://www.w3.org/TR/2001/REC-SVG-20010904/DTD/svg10.dtd">
<svg version="1.0" xmlns="http://www.w3.org/2000/svg"
 width="58.000000pt" height="123.000000pt" viewBox="0 0 58.000000 123.000000"
 preserveAspectRatio="xMidYMid meet">
<metadata>
Created by potrace 1.10, written by Peter Selinger 2001-2011
</metadata>
<g transform="translate(0.000000,123.000000) scale(0.100000,-0.100000)"
fill="#000000" stroke="none">
<path d="M231 1219 c-167 -33 -270 -220 -208 -381 18 -46 18 -50 1 -94 -26
-70 -23 -157 8 -225 l26 -57 -25 -51 c-20 -40 -26 -67 -26 -119 -1 -116 56
-208 163 -264 63 -32 175 -33 241 0 86 42 149 126 164 220 6 35 4 42 -9 42
-11 0 -16 -9 -16 -27 -1 -39 -36 -112 -73 -152 -18 -18 -54 -44 -82 -57 -214
-101 -442 136 -334 347 l20 41 22 -20 c89 -82 247 -93 344 -23 63 45 62 45 78
7 9 -20 20 -36 25 -36 16 0 11 33 -9 64 -20 29 -20 29 6 79 20 37 28 69 31
129 3 44 1 83 -4 87 -5 3 -17 20 -26 38 -14 27 -14 34 -3 43 8 6 18 34 24 61
14 65 14 69 -4 69 -9 0 -15 -9 -15 -25 0 -14 -7 -42 -15 -62 l-15 -36 -28 25
c-15 15 -52 41 -82 58 -52 31 -59 32 -124 26 -80 -7 -137 -30 -189 -75 l-37
-33 -10 28 c-57 149 35 312 196 346 27 6 44 15 44 24 0 8 -3 14 -7 13 -5 -1
-28 -5 -52 -10z m170 -697 c24 -12 53 -28 63 -36 19 -15 19 -16 0 -37 -53 -60
-183 -86 -261 -54 -49 21 -105 64 -98 76 10 16 95 62 128 69 52 11 122 3 168
-18z"/>
<path d="M370 1197 c0 -7 15 -18 33 -25 41 -15 100 -72 122 -118 18 -37 35
-45 35 -15 0 29 -60 102 -114 139 -51 34 -76 40 -76 19z"/>
</g>
</svg>
