<?xml version="1.0" standalone="no"?>
<!DOCTYPE svg PUBLIC "-//W3C//DTD SVG 20010904//EN"
 "http://www.w3.org/TR/2001/REC-SVG-20010904/DTD/svg10.dtd">
<svg version="1.0" xmlns="http://www.w3.org/2000/svg"
 width="112.000000pt" height="113.000000pt" viewBox="0 0 112.000000 113.000000"
 preserveAspectRatio="xMidYMid meet">
<metadata>
Created by potrace 1.10, written by Peter Selinger 2001-2011
</metadata>
<g transform="translate(0.000000,113.000000) scale(0.050000,-0.050000)"
fill="#000000" stroke="none">
<path d="M349 2007 c-164 -138 -305 -257 -313 -264 -8 -7 15 -47 50 -88 l64
-76 194 171 c107 93 199 170 205 170 6 0 11 -432 11 -960 l0 -960 102 0 102 0
-7 960 c-4 528 -4 960 0 960 4 0 97 -77 205 -171 l197 -171 60 66 c33 36 60
72 60 78 1 12 -562 494 -610 523 -12 7 -156 -100 -320 -238z"/>
<path d="M1020 1224 l0 -96 340 0 340 0 0 96 0 96 -340 0 -340 0 0 -96z"/>
<path d="M1020 845 l0 -95 425 3 425 3 6 92 6 92 -431 0 -431 0 0 -95z"/>
<path d="M1020 470 l0 -90 520 0 520 0 0 90 0 90 -520 0 -520 0 0 -90z"/>
<path d="M1020 103 l0 -103 610 0 610 0 0 90 0 90 -517 0 c-285 0 -559 6 -610
13 l-93 12 0 -102z"/>
</g>
</svg>
