<?xml version="1.0" standalone="no"?>
<!DOCTYPE svg PUBLIC "-//W3C//DTD SVG 20010904//EN"
 "http://www.w3.org/TR/2001/REC-SVG-20010904/DTD/svg10.dtd">
<svg version="1.0" xmlns="http://www.w3.org/2000/svg"
 width="112.000000pt" height="113.000000pt" viewBox="0 0 112.000000 113.000000"
 preserveAspectRatio="xMidYMid meet">
<metadata>
Created by potrace 1.10, written by Peter Selinger 2001-2011
</metadata>
<g transform="translate(0.000000,113.000000) scale(0.100000,-0.100000)"
fill="#000000" stroke="none">
<path d="M230 1060 l0 -70 -115 0 -115 0 0 -495 0 -495 560 0 560 0 0 495 0
495 -115 0 -115 0 0 70 0 70 -50 0 -50 0 0 -70 0 -70 -230 0 -230 0 0 70 0 70
-50 0 -50 0 0 -70z m800 -260 l0 -90 -470 0 -470 0 0 90 0 90 470 0 470 0 0
-90z m-2 -447 l-3 -258 -465 0 -465 0 -3 258 -2 257 470 0 470 0 -2 -257z"/>
</g>
</svg>
