<?xml version="1.0" standalone="no"?>
<!DOCTYPE svg PUBLIC "-//W3C//DTD SVG 20010904//EN"
 "http://www.w3.org/TR/2001/REC-SVG-20010904/DTD/svg10.dtd">
<svg version="1.0" xmlns="http://www.w3.org/2000/svg"
 width="112.000000pt" height="113.000000pt" viewBox="0 0 112.000000 113.000000"
 preserveAspectRatio="xMidYMid meet">
<metadata>
Created by potrace 1.10, written by Peter Selinger 2001-2011
</metadata>
<g transform="translate(0.000000,113.000000) scale(0.100000,-0.100000)"
fill="#000000" stroke="none">
<path d="M135 990 l-29 -30 29 -32 c16 -18 103 -107 192 -198 l163 -165 -141
-140 c-77 -77 -163 -166 -192 -199 l-51 -58 35 -29 34 -28 193 192 192 192
193 -193 193 -192 33 34 33 34 -190 194 -191 194 140 140 c77 76 162 164 189
194 l48 56 -29 34 -28 35 -196 -195 -195 -195 -193 193 c-106 105 -195 192
-198 192 -3 0 -18 -13 -34 -30z"/>
</g>
</svg>
