<?xml version="1.0" standalone="no"?>
<!DOCTYPE svg PUBLIC "-//W3C//DTD SVG 20010904//EN"
 "http://www.w3.org/TR/2001/REC-SVG-20010904/DTD/svg10.dtd">
<svg version="1.0" xmlns="http://www.w3.org/2000/svg"
 width="113.000000pt" height="113.000000pt" viewBox="0 0 113.000000 113.000000"
 preserveAspectRatio="xMidYMid meet">
<metadata>
Created by potrace 1.10, written by Peter Selinger 2001-2011
</metadata>
<g transform="translate(0.000000,113.000000) scale(0.050000,-0.050000)"
fill="#000000" stroke="none">
<path d="M1635 2232 c-216 -63 -430 -210 -642 -444 l-116 -128 -171 0 c-263 0
-308 -20 -521 -231 -284 -281 -261 -390 96 -458 241 -46 238 -45 435 -238 200
-195 208 -210 254 -452 69 -357 178 -380 459 -96 211 212 231 258 231 518 l0
167 175 171 c360 350 493 694 397 1025 -50 173 -316 247 -597 166z m401 -202
c17 -16 27 -73 26 -164 0 -264 -120 -474 -428 -753 l-174 -158 0 -229 0 -230
-135 -139 c-153 -159 -142 -164 -196 93 l-33 160 -243 243 -243 243 -160 33
c-257 54 -252 43 -93 196 l139 135 224 0 224 0 223 227 c327 333 716 487 869
343z"/>
<path d="M1546 1777 c-195 -53 -157 -357 44 -357 99 0 148 30 183 113 58 141
-76 285 -227 244z"/>
<path d="M350 750 c-11 -4 -45 -12 -75 -19 -162 -35 -262 -227 -264 -508 -1
-200 18 -223 189 -223 380 0 613 207 540 479 -44 166 -258 315 -390 271z m161
-239 c102 -103 49 -249 -105 -289 -222 -57 -241 -38 -184 183 39 152 188 206
289 106z"/>
</g>
</svg>
