<?xml version="1.0" standalone="no"?>
<!DOCTYPE svg PUBLIC "-//W3C//DTD SVG 20010904//EN"
 "http://www.w3.org/TR/2001/REC-SVG-20010904/DTD/svg10.dtd">
<svg version="1.0" xmlns="http://www.w3.org/2000/svg"
 width="113.000000pt" height="113.000000pt" viewBox="0 0 113.000000 113.000000"
 preserveAspectRatio="xMidYMid meet">
<metadata>
Created by potrace 1.10, written by Peter Selinger 2001-2011
</metadata>
<g transform="translate(0.000000,113.000000) scale(0.100000,-0.100000)"
fill="#000000" stroke="none">
<path d="M0 940 l0 -190 45 0 44 0 3 143 3 142 470 0 470 0 3 -142 3 -143 44
0 45 0 0 190 0 190 -565 0 -565 0 0 -190z"/>
<path d="M520 518 l0 -333 -125 125 -125 124 -35 -34 -35 -34 182 -183 183
-183 182 182 183 183 -35 35 -35 35 -125 -125 -125 -125 0 333 0 332 -45 0
-45 0 0 -332z"/>
</g>
</svg>
