<?xml version="1.0" standalone="no"?>
<!DOCTYPE svg PUBLIC "-//W3C//DTD SVG 20010904//EN"
 "http://www.w3.org/TR/2001/REC-SVG-20010904/DTD/svg10.dtd">
<svg version="1.0" xmlns="http://www.w3.org/2000/svg"
 width="66.000000pt" height="91.000000pt" viewBox="0 0 66.000000 91.000000"
 preserveAspectRatio="xMidYMid meet">
<metadata>
Created by potrace 1.10, written by Peter Selinger 2001-2011
</metadata>
<g transform="translate(0.000000,91.000000) scale(0.100000,-0.100000)"
fill="#000000" stroke="none">
<path d="M280 890 c-30 -30 -30 -85 1 -112 10 -9 19 -26 19 -37 0 -16 -6 -21
-27 -21 -43 0 -127 -44 -173 -90 -23 -23 -54 -67 -69 -99 -24 -52 -26 -67 -29
-222 l-4 -166 91 -23 c65 -16 92 -27 96 -40 9 -27 79 -71 123 -77 56 -7 106
12 155 60 36 36 54 45 120 61 l79 18 -4 167 c-4 185 -13 222 -83 307 -39 47
-141 104 -187 104 -23 0 -28 4 -28 24 0 13 7 26 15 30 40 15 36 104 -5 126
-30 16 -68 12 -90 -10z m68 -58 c2 -14 -2 -22 -12 -22 -19 0 -29 17 -22 36 8
22 30 12 34 -14z m97 -186 c109 -50 156 -130 163 -272 l4 -92 -71 -16 c-146
-33 -294 -31 -445 6 l-48 12 4 91 c6 104 21 146 75 205 79 89 212 116 318 66z
m-115 -450 c108 0 174 5 218 16 l62 15 0 -23 c0 -20 -9 -25 -77 -41 -106 -24
-300 -24 -405 0 -69 16 -78 21 -78 41 l0 23 63 -15 c43 -11 109 -16 217 -16z
m67 -123 c-24 -25 -110 -25 -134 0 -16 16 -13 17 67 17 80 0 83 -1 67 -17z"/>
<path d="M204 546 c-3 -8 -4 -31 -2 -52 2 -32 7 -40 26 -42 21 -3 22 0 22 52
0 50 -2 56 -20 56 -11 0 -23 -6 -26 -14z"/>
<path d="M410 505 c0 -53 1 -56 23 -53 19 3 22 9 22 53 0 44 -3 50 -22 53 -22
3 -23 0 -23 -53z"/>
<path d="M295 400 c-38 -8 -83 -37 -95 -61 -13 -24 -13 -26 7 -33 10 -4 27 3
45 21 42 40 114 40 156 0 18 -18 35 -25 45 -21 20 7 20 9 7 34 -23 43 -107 73
-165 60z"/>
</g>
</svg>
