<?xml version="1.0" standalone="no"?>
<!DOCTYPE svg PUBLIC "-//W3C//DTD SVG 20010904//EN"
 "http://www.w3.org/TR/2001/REC-SVG-20010904/DTD/svg10.dtd">
<svg version="1.0" xmlns="http://www.w3.org/2000/svg"
 width="112.000000pt" height="113.000000pt" viewBox="0 0 112.000000 113.000000"
 preserveAspectRatio="xMidYMid meet">
<metadata>
Created by potrace 1.10, written by Peter Selinger 2001-2011
</metadata>
<g transform="translate(0.000000,113.000000) scale(0.050000,-0.050000)"
fill="#000000" stroke="none">
<path d="M280 1834 l0 -425 94 2 93 1 -5 334 -5 334 471 0 472 0 0 -291 0
-291 280 6 280 6 0 -666 0 -667 -840 7 -840 6 0 -95 0 -95 930 0 930 0 0 875
0 876 -255 254 -256 255 -674 0 -675 0 0 -426z m1481 24 c89 -90 158 -165 155
-167 -3 -2 -80 0 -171 5 l-165 8 0 158 c0 192 -13 192 181 -4z"/>
<path d="M172 1216 c9 -14 69 -102 134 -195 65 -92 123 -180 128 -195 6 -14
-54 -116 -132 -227 -169 -240 -166 -219 -34 -219 l107 0 85 140 c103 170 91
170 196 0 l87 -140 108 0 c133 0 136 -20 -31 217 -168 239 -167 197 -14 414
69 99 133 190 141 204 12 19 -12 25 -95 25 l-109 0 -87 -140 c-104 -168 -88
-168 -186 -4 l-80 134 -117 6 c-92 5 -113 1 -101 -20z"/>
</g>
</svg>
