<?xml version="1.0" standalone="no"?>
<!DOCTYPE svg PUBLIC "-//W3C//DTD SVG 20010904//EN"
 "http://www.w3.org/TR/2001/REC-SVG-20010904/DTD/svg10.dtd">
<svg version="1.0" xmlns="http://www.w3.org/2000/svg"
 width="112.000000pt" height="113.000000pt" viewBox="0 0 112.000000 113.000000"
 preserveAspectRatio="xMidYMid meet">
<metadata>
Created by potrace 1.10, written by Peter Selinger 2001-2011
</metadata>
<g transform="translate(0.000000,113.000000) scale(0.100000,-0.100000)"
fill="#000000" stroke="none">
<path d="M0 1083 c1 -47 5 -53 195 -292 l195 -245 2 -272 3 -273 165 68 165
67 3 205 2 205 195 245 c190 239 194 245 195 292 l0 47 -560 0 -560 0 0 -47z
m980 -58 c0 -3 -79 -104 -175 -225 l-175 -220 0 -187 0 -188 -62 -25 c-35 -14
-66 -26 -70 -28 -5 -2 -8 94 -8 212 l0 216 -175 220 c-96 121 -175 222 -175
225 0 3 189 5 420 5 231 0 420 -2 420 -5z"/>
</g>
</svg>
