<?xml version="1.0" standalone="no"?>
<!DOCTYPE svg PUBLIC "-//W3C//DTD SVG 20010904//EN"
 "http://www.w3.org/TR/2001/REC-SVG-20010904/DTD/svg10.dtd">
<svg version="1.0" xmlns="http://www.w3.org/2000/svg"
 width="113.000000pt" height="112.000000pt" viewBox="0 0 113.000000 112.000000"
 preserveAspectRatio="xMidYMid meet">
<metadata>
Created by potrace 1.10, written by Peter Selinger 2001-2011
</metadata>
<g transform="translate(0.000000,112.000000) scale(0.100000,-0.100000)"
fill="#000000" stroke="none">
<path d="M485 1111 c-45 -12 -110 -47 -149 -82 -45 -39 -96 -140 -96 -191 l0
-38 45 0 c40 0 45 2 45 23 0 44 50 126 95 157 65 45 128 56 196 37 131 -39
206 -170 168 -298 -19 -61 -62 -104 -143 -143 -104 -49 -120 -74 -124 -198
l-4 -98 46 0 46 0 0 70 c0 94 11 114 79 141 75 31 161 116 184 183 10 28 17
80 17 121 0 60 -5 82 -30 132 -35 71 -102 136 -168 165 -50 23 -157 32 -207
19z"/>
<path d="M523 174 c-86 -42 -54 -174 42 -174 97 0 128 133 40 174 -40 19 -42
19 -82 0z"/>
</g>
</svg>
