<?xml version="1.0" standalone="no"?>
<!DOCTYPE svg PUBLIC "-//W3C//DTD SVG 20010904//EN"
 "http://www.w3.org/TR/2001/REC-SVG-20010904/DTD/svg10.dtd">
<svg version="1.0" xmlns="http://www.w3.org/2000/svg"
 width="113.000000pt" height="113.000000pt" viewBox="0 0 113.000000 113.000000"
 preserveAspectRatio="xMidYMid meet">
<metadata>
Created by potrace 1.10, written by Peter Selinger 2001-2011
</metadata>
<g transform="translate(0.000000,113.000000) scale(0.100000,-0.100000)"
fill="#000000" stroke="none">
<path d="M304 919 c-142 -116 -269 -221 -281 -232 l-22 -22 28 -35 29 -34 35
27 c20 15 38 27 41 27 3 0 6 -146 6 -325 l0 -325 425 0 425 0 0 325 c0 179 3
325 6 325 3 0 21 -12 41 -27 l35 -27 28 34 c16 19 26 38 24 42 -4 5 -509 419
-550 450 -6 5 -111 -74 -270 -203z m406 -30 c74 -61 147 -122 163 -135 l27
-24 -2 -318 -3 -317 -70 0 -70 0 -3 187 -2 188 -185 0 -185 0 -2 -187 -3 -188
-70 0 -70 0 -3 317 -2 318 27 24 c80 71 299 246 308 246 6 0 71 -50 145 -111z
m-55 -654 l0 -140 -90 0 -90 0 -3 129 c-1 72 0 136 3 143 3 10 26 13 92 11
l88 -3 0 -140z"/>
</g>
</svg>
