<?xml version="1.0" standalone="no"?>
<!DOCTYPE svg PUBLIC "-//W3C//DTD SVG 20010904//EN"
 "http://www.w3.org/TR/2001/REC-SVG-20010904/DTD/svg10.dtd">
<svg version="1.0" xmlns="http://www.w3.org/2000/svg"
 width="112.000000pt" height="113.000000pt" viewBox="0 0 112.000000 113.000000"
 preserveAspectRatio="xMidYMid meet">
<metadata>
Created by potrace 1.10, written by Peter Selinger 2001-2011
</metadata>
<g transform="translate(0.000000,113.000000) scale(0.050000,-0.050000)"
fill="#000000" stroke="none">
<path d="M775 1812 c-505 -179 -747 -536 -770 -1137 l-11 -296 438 6 438 5 0
50 0 50 -375 5 -375 6 0 154 c1 430 211 806 541 969 711 354 1459 -147 1459
-977 l0 -146 -375 -6 -375 -5 0 -50 0 -50 438 -5 438 -6 -11 296 c-12 340 -46
468 -177 676 -267 422 -825 622 -1283 461z"/>
<path d="M980 1617 c-382 -63 -674 -367 -737 -767 -16 -107 -16 -110 30 -110
26 0 54 0 62 -1 8 0 26 56 40 125 120 593 807 840 1242 446 82 -74 84 -74 135
-40 l52 34 -75 77 c-100 102 -278 195 -444 230 -150 32 -151 32 -305 6z"/>
<path d="M1858 1089 l-52 -27 36 -106 c20 -58 37 -129 37 -158 1 -66 11 -74
71 -63 61 12 66 82 18 246 -40 136 -46 142 -110 108z"/>
<path d="M1474 850 l-196 -68 -69 41 c-164 97 -340 -93 -247 -266 67 -126 286
-100 327 38 18 59 33 69 180 116 254 80 271 89 271 139 0 35 -43 79 -67 68 -1
0 -91 -31 -199 -68z m-304 -190 c0 -37 -12 -52 -45 -56 -49 -7 -77 36 -57 87
20 53 102 28 102 -31z"/>
</g>
</svg>
