<?xml version="1.0" standalone="no"?>
<!DOCTYPE svg PUBLIC "-//W3C//DTD SVG 20010904//EN"
 "http://www.w3.org/TR/2001/REC-SVG-20010904/DTD/svg10.dtd">
<svg version="1.0" xmlns="http://www.w3.org/2000/svg"
 width="113.000000pt" height="113.000000pt" viewBox="0 0 113.000000 113.000000"
 preserveAspectRatio="xMidYMid meet">
<metadata>
Created by potrace 1.10, written by Peter Selinger 2001-2011
</metadata>
<g transform="translate(0.000000,113.000000) scale(0.050000,-0.050000)"
fill="#01a982" stroke="none">
<path d="M700 2242 c-404 -132 -551 -602 -284 -903 l77 -87 -118 -78 c-274
-184 -359 -376 -371 -839 l-8 -335 382 0 382 0 0 89 0 90 -285 5 -285 6 3 214
c8 610 598 936 1058 584 108 -82 108 -82 175 -12 l54 56 -75 72 c-41 39 -105
87 -142 105 l-68 34 61 64 c384 404 -34 1107 -556 935z m303 -202 c37 -1 147
-118 179 -189 154 -339 -229 -670 -538 -466 -336 222 -115 758 276 671 39 -8
76 -15 83 -16z"/>
<path d="M1623 893 l-266 -267 -74 20 c-353 94 -557 -372 -259 -592 233 -173
594 94 498 369 -22 63 -19 69 67 156 l91 90 110 -109 110 -109 65 64 64 65
-108 109 -109 110 48 51 48 51 102 -101 c119 -117 125 -119 200 -40 l58 61
-168 169 c-93 94 -178 170 -190 170 -11 0 -140 -120 -287 -267z m-320 -466
c66 -60 37 -194 -49 -225 -146 -54 -255 157 -126 243 39 26 138 16 175 -18z"/>
</g>
</svg>
