<?xml version="1.0" standalone="no"?>
<!DOCTYPE svg PUBLIC "-//W3C//DTD SVG 20010904//EN"
 "http://www.w3.org/TR/2001/REC-SVG-20010904/DTD/svg10.dtd">
<svg version="1.0" xmlns="http://www.w3.org/2000/svg"
 width="91.000000pt" height="76.000000pt" viewBox="0 0 91.000000 76.000000"
 preserveAspectRatio="xMidYMid meet">
<metadata>
Created by potrace 1.10, written by Peter Selinger 2001-2011
</metadata>
<g transform="translate(0.000000,76.000000) scale(0.050000,-0.050000)"
fill="#000000" stroke="none">
<path d="M0 760 l0 -760 910 0 910 0 0 760 0 760 -910 0 -910 0 0 -760z m1720
585 l0 -75 -810 0 -810 0 0 75 0 75 810 0 810 0 0 -75z m0 -715 l0 -530 -810
0 -810 0 0 530 0 530 810 0 810 0 0 -530z"/>
<path d="M200 630 l0 -430 710 0 710 0 0 430 0 430 -710 0 -710 0 0 -430z
m1320 0 l0 -330 -610 0 -610 0 0 330 0 330 610 0 610 0 0 -330z"/>
<path d="M1260 630 l0 -230 50 0 50 0 0 230 0 230 -50 0 -50 0 0 -230z"/>
<path d="M860 580 c0 -179 0 -180 50 -180 50 0 50 1 50 180 0 179 0 180 -50
180 -50 0 -50 -1 -50 -180z"/>
<path d="M660 530 c0 -125 2 -130 50 -130 48 0 50 5 50 130 0 125 -2 130 -50
130 -48 0 -50 -5 -50 -130z"/>
<path d="M1060 530 c0 -125 2 -130 50 -130 48 0 50 5 50 130 0 125 -2 130 -50
130 -48 0 -50 -5 -50 -130z"/>
<path d="M457 480 c6 -69 14 -80 55 -80 43 0 48 9 48 80 0 74 -4 80 -56 80
-52 0 -55 -4 -47 -80z"/>
</g>
</svg>
