<?xml version="1.0" standalone="no"?>
<!DOCTYPE svg PUBLIC "-//W3C//DTD SVG 20010904//EN"
 "http://www.w3.org/TR/2001/REC-SVG-20010904/DTD/svg10.dtd">
<svg version="1.0" xmlns="http://www.w3.org/2000/svg"
 width="112.000000pt" height="113.000000pt" viewBox="0 0 112.000000 113.000000"
 preserveAspectRatio="xMidYMid meet">
<metadata>
Created by potrace 1.10, written by Peter Selinger 2001-2011
</metadata>
<g transform="translate(0.000000,113.000000) scale(0.100000,-0.100000)"
fill="#000000" stroke="none">
<path d="M50 680 l0 -450 90 0 90 0 0 -106 c0 -81 3 -105 13 -101 6 3 107 51
224 106 l211 101 221 0 221 0 0 450 0 450 -535 0 -535 0 0 -450z m978 3 l2
-353 -183 0 -184 0 -164 -78 -164 -79 -3 79 -3 78 -94 0 -95 0 0 348 c0 192 3
352 7 355 3 4 203 6 442 5 l436 -3 3 -352z"/>
<path d="M280 680 l0 -70 70 0 70 0 0 70 0 70 -70 0 -70 0 0 -70z"/>
<path d="M510 680 l0 -70 70 0 70 0 0 70 0 70 -70 0 -70 0 0 -70z"/>
<path d="M750 680 l0 -70 70 0 70 0 0 70 0 70 -70 0 -70 0 0 -70z"/>
</g>
</svg>
