<?xml version="1.0" standalone="no"?>
<!DOCTYPE svg PUBLIC "-//W3C//DTD SVG 20010904//EN"
 "http://www.w3.org/TR/2001/REC-SVG-20010904/DTD/svg10.dtd">
<svg version="1.0" xmlns="http://www.w3.org/2000/svg"
 width="113.000000pt" height="113.000000pt" viewBox="0 0 113.000000 113.000000"
 preserveAspectRatio="xMidYMid meet">
<metadata>
Created by potrace 1.10, written by Peter Selinger 2001-2011
</metadata>
<g transform="translate(0.000000,113.000000) scale(0.100000,-0.100000)"
fill="#000000" stroke="none">
<path d="M671 1115 c-59 -19 -143 -78 -175 -123 -52 -76 -70 -132 -70 -219
l-1 -82 -201 -203 c-217 -218 -231 -239 -221 -324 13 -121 154 -201 260 -148
18 9 121 104 230 212 l197 197 83 0 c71 0 91 5 149 32 168 79 244 251 189 432
-12 39 -25 71 -29 71 -4 0 -52 -45 -107 -100 -55 -55 -104 -100 -110 -100 -13
0 -105 92 -105 106 0 5 45 54 100 109 55 55 100 103 100 107 0 4 -30 16 -66
28 -75 23 -159 25 -223 5z m31 -168 l-82 -82 123 -123 122 -122 80 80 c44 44
82 80 86 80 11 0 -9 -88 -30 -128 -21 -42 -64 -83 -114 -108 -40 -21 -137 -29
-178 -15 l-33 11 -221 -220 c-210 -209 -223 -220 -259 -220 -49 0 -75 15 -91
52 -24 58 -8 80 220 308 l215 216 -11 33 c-14 41 -7 137 15 178 25 50 66 93
108 114 38 19 118 39 127 32 3 -2 -32 -41 -77 -86z"/>
</g>
</svg>
