<?xml version="1.0" standalone="no"?>
<!DOCTYPE svg PUBLIC "-//W3C//DTD SVG 20010904//EN"
 "http://www.w3.org/TR/2001/REC-SVG-20010904/DTD/svg10.dtd">
<svg version="1.0" xmlns="http://www.w3.org/2000/svg"
 width="113.000000pt" height="113.000000pt" viewBox="0 0 113.000000 113.000000"
 preserveAspectRatio="xMidYMid meet">
<metadata>
Created by potrace 1.10, written by Peter Selinger 2001-2011
</metadata>
<g transform="translate(0.000000,113.000000) scale(0.100000,-0.100000)"
fill="#000000" stroke="none">
<path d="M465 1124 c-221 -56 -369 -186 -437 -382 -33 -96 -33 -258 0 -354 58
-169 191 -301 360 -360 96 -33 258 -33 354 0 169 59 302 191 360 360 33 96 33
258 0 354 -58 167 -190 300 -355 358 -61 22 -234 36 -282 24z m55 -139 l0 -45
45 0 45 0 0 45 c0 39 3 45 20 45 50 0 205 -68 224 -98 3 -5 -8 -22 -24 -37
l-30 -29 32 -33 32 -33 31 30 c30 29 32 30 46 13 29 -34 48 -71 69 -132 31
-92 29 -101 -25 -101 l-45 0 0 -45 0 -45 46 0 47 0 -7 -42 c-4 -24 -11 -47
-15 -51 -4 -4 -63 -6 -131 -5 l-124 3 -8 39 c-11 52 -50 101 -99 126 l-39 20
0 120 0 120 -45 0 -45 0 0 -120 0 -120 -39 -20 c-49 -25 -88 -74 -99 -126 l-8
-39 -124 -3 c-68 -1 -127 1 -131 5 -4 4 -11 27 -15 51 l-7 42 47 0 46 0 0 45
0 45 -46 0 -47 0 7 43 c7 42 44 131 72 176 l16 23 29 -28 29 -28 30 29 c36 35
37 45 5 75 l-24 23 22 17 c51 40 166 88 215 89 20 1 22 -4 22 -44z m85 -480
c32 -16 60 -58 50 -76 -4 -5 -44 -9 -90 -9 -46 0 -86 4 -90 9 -10 17 17 60 49
75 39 19 41 19 81 1z m354 -197 c-27 -50 -120 -129 -191 -163 -134 -64 -271
-64 -406 0 -71 34 -164 113 -191 163 l-12 22 406 0 406 0 -12 -22z"/>
</g>
</svg>
