<?xml version="1.0" standalone="no"?>
<!DOCTYPE svg PUBLIC "-//W3C//DTD SVG 20010904//EN"
 "http://www.w3.org/TR/2001/REC-SVG-20010904/DTD/svg10.dtd">
<svg version="1.0" xmlns="http://www.w3.org/2000/svg"
 width="61.000000pt" height="51.000000pt" viewBox="0 0 61.000000 51.000000"
 preserveAspectRatio="xMidYMid meet">
<metadata>
Created by potrace 1.10, written by Peter Selinger 2001-2011
</metadata>
<g transform="translate(0.000000,51.000000) scale(0.050000,-0.050000)"
fill="#000000" stroke="none">
<path d="M0 510 l0 -510 610 0 610 0 0 510 0 510 -610 0 -610 0 0 -510z m200
350 c0 -51 -8 -60 -50 -60 -42 0 -50 9 -50 60 0 51 8 60 50 60 42 0 50 -9 50
-60z m216 5 c-9 -80 -103 -80 -112 0 -6 50 -1 55 56 55 57 0 62 -5 56 -55z
m200 0 c-5 -44 -16 -55 -56 -55 -40 0 -51 11 -56 55 -6 50 -1 55 56 55 57 0
62 -5 56 -55z m504 0 l0 -55 -200 0 -200 0 0 55 0 55 200 0 200 0 0 -55z m0
-455 l0 -310 -510 0 -510 0 0 310 0 310 510 0 510 0 0 -310z"/>
</g>
</svg>
