<?xml version="1.0" standalone="no"?>
<!DOCTYPE svg PUBLIC "-//W3C//DTD SVG 20010904//EN"
 "http://www.w3.org/TR/2001/REC-SVG-20010904/DTD/svg10.dtd">
<svg version="1.0" xmlns="http://www.w3.org/2000/svg"
 width="112.000000pt" height="113.000000pt" viewBox="0 0 112.000000 113.000000"
 preserveAspectRatio="xMidYMid meet">
<metadata>
Created by potrace 1.10, written by Peter Selinger 2001-2011
</metadata>
<g transform="translate(0.000000,113.000000) scale(0.050000,-0.050000)"
fill="#000000" stroke="none">
<path d="M555 1797 l-554 -460 54 -69 c66 -81 66 -81 141 -18 33 28 65 50 72
50 7 0 12 -292 12 -650 l0 -650 840 0 840 0 0 650 c0 358 5 650 12 650 7 0 39
-22 72 -50 75 -63 75 -63 141 18 l54 69 -558 461 c-307 254 -561 461 -565 461
-3 -1 -256 -209 -561 -462z m745 -1327 l0 -290 -180 0 -180 0 0 290 0 290 180
0 180 0 0 -290z"/>
</g>
</svg>
