<?xml version="1.0" standalone="no"?>
<!DOCTYPE svg PUBLIC "-//W3C//DTD SVG 20010904//EN"
 "http://www.w3.org/TR/2001/REC-SVG-20010904/DTD/svg10.dtd">
<svg version="1.0" xmlns="http://www.w3.org/2000/svg"
 width="61.000000pt" height="61.000000pt" viewBox="0 0 61.000000 61.000000"
 preserveAspectRatio="xMidYMid meet">
<metadata>
Created by potrace 1.10, written by Peter Selinger 2001-2011
</metadata>
<g transform="translate(0.000000,61.000000) scale(0.050000,-0.050000)"
fill="#000000" stroke="none">
<path d="M200 990 l0 -230 59 0 58 0 -11 180 -12 180 265 0 265 0 -7 -155 -6
-154 154 6 155 7 0 -362 0 -362 -460 0 -460 0 0 -50 0 -50 510 0 510 0 0 466
0 465 -145 145 -146 144 -364 0 -365 0 0 -230z m880 -74 c0 -8 -36 -13 -80
-11 l-80 5 0 89 0 89 80 -78 c44 -43 80 -85 80 -94z"/>
<path d="M0 560 c0 -51 8 -60 50 -60 49 0 50 -3 50 -150 0 -147 1 -150 50
-150 49 0 50 3 50 150 0 147 1 150 50 150 42 0 50 9 50 60 l0 60 -150 0 -150
0 0 -60z"/>
<path d="M340 607 c0 -8 23 -53 51 -101 l51 -87 -62 -110 -63 -109 61 0 c48 0
68 13 92 60 17 33 35 60 40 60 5 0 23 -27 40 -60 22 -42 46 -60 81 -60 62 0
62 7 -13 123 l-62 96 62 85 c75 102 77 116 12 116 -35 0 -62 -19 -87 -59 l-35
-59 -35 59 c-32 53 -133 88 -133 46z"/>
<path d="M720 560 c0 -51 7 -60 53 -60 l52 0 -9 -150 -10 -150 57 0 57 0 0
150 c0 147 1 150 50 150 42 0 50 9 50 60 l0 60 -150 0 -150 0 0 -60z"/>
</g>
</svg>
